HIERARCHY
ROOT Hips
{
	OFFSET -0.179506 -22.333345 2.821913
	CHANNELS 6 Xposition Yposition Zposition Zrotation Yrotation Xrotation 
	JOINT LeftUpLeg
	{
		OFFSET 6.951974 -9.140623 -0.681533
		CHANNELS 3 Zrotation Yrotation Xrotation
		JOINT LeftLeg
		{
			OFFSET 3.427654 -37.519855 -0.449580
			CHANNELS 3 Zrotation Yrotation Xrotation
			JOINT LeftFoot
			{
				OFFSET -1.359570 -39.796059 -4.369333
				CHANNELS 3 Zrotation Yrotation Xrotation
				JOINT LeftToe
				{
					OFFSET 2.635814 -5.579078 11.928840
					CHANNELS 3 Zrotation Yrotation Xrotation
					End Site
					{
						OFFSET 0.000000 0.000000 0.000000
					}
				}
			}
		}
	}
	JOINT RightUpLeg
	{
		OFFSET -6.767048 -9.052170 -0.431982
		CHANNELS 3 Zrotation Yrotation Xrotation
		JOINT RightLeg
		{
			OFFSET -3.829005 -38.256897 -0.885003
			CHANNELS 3 Zrotation Yrotation Xrotation
			JOINT RightFoot
			{
				OFFSET 1.577377 -39.841461 -4.231180
				CHANNELS 3 Zrotation Yrotation Xrotation
				JOINT RightToe
				{
					OFFSET -2.537174 -4.814398 12.334795
					CHANNELS 3 Zrotation Yrotation Xrotation
					End Site
					{
						OFFSET 0.000000 0.000000 0.000000
					}
				}
			}
		}
	}
	JOINT Spine
	{
		OFFSET -0.253288 10.896323 -2.669631
		CHANNELS 3 Zrotation Yrotation Xrotation
		JOINT Spine1
		{
			OFFSET 0.548704 13.518043 0.109247
			CHANNELS 3 Zrotation Yrotation Xrotation
			JOINT Spine2
			{
				OFFSET 0.145701 5.292222 2.542457
				CHANNELS 3 Zrotation Yrotation Xrotation
				JOINT Neck
				{
					OFFSET -0.277840 21.387037 -4.285703
					CHANNELS 3 Zrotation Yrotation Xrotation
					JOINT Head
					{
						OFFSET 0.515184 6.496960 5.134897
						CHANNELS 3 Zrotation Yrotation Xrotation
						End Site
						{
							OFFSET 0.000000 0.000000 0.000000
						}
					}
				}
				JOINT LeftShoulder
				{
					OFFSET 7.884473 12.174932 -3.408961
					CHANNELS 3 Zrotation Yrotation Xrotation
					JOINT LeftArm
					{
						OFFSET 9.097692 3.046888 -0.886815
						CHANNELS 3 Zrotation Yrotation Xrotation
						JOINT LeftForeArm
						{
							OFFSET 25.961220 -1.277207 -2.745643
							CHANNELS 3 Zrotation Yrotation Xrotation
							JOINT LeftHand
							{
								OFFSET 24.923361 0.898606 -0.117091
								CHANNELS 3 Zrotation Yrotation Xrotation
								End Site
								{
									OFFSET 0.000000 0.000000 0.000000
								}
							}
						}
					}
				}
				JOINT RightShoulder
				{
					OFFSET -8.175920 11.883285 -3.861528
					CHANNELS 3 Zrotation Yrotation Xrotation
					JOINT RightArm
					{
						OFFSET -9.601238 3.255117 -0.914307
						CHANNELS 3 Zrotation Yrotation Xrotation
						JOINT RightForeArm
						{
							OFFSET -25.374195 -1.332924 -2.140099
							CHANNELS 3 Zrotation Yrotation Xrotation
							JOINT RightHand
							{
								OFFSET -25.529810 0.777228 -0.555919
								CHANNELS 3 Zrotation Yrotation Xrotation
								End Site
								{
									OFFSET 0.000000 0.000000 0.000000
								}
							}
						}
					}
				}
			}
		}
	}
}
MOTION
Frames: 7
Frame Time: 0.033333
-34.214958 119.566460 89.538933 -123.613963 2.547104 87.906003 11.530351 7.910120 1.415216 -3.619472 5.349946 21.676822 1.952291 13.765153 -29.575196 nan nan nan -15.591577 -8.988820 -28.329384 1.752663 -12.609645 26.882085 4.615497 -4.868233 -15.206790 nan nan nan -4.190529 -3.817642 7.263414 4.914135 -6.953851 9.549361 -0.055696 -2.586701 -1.860964 3.311141 -9.662718 11.686117 8.609514 -11.806844 8.941474 -14.914406 -14.221955 4.576770 -64.915788 -46.431854 27.938580 147.515726 -59.337339 -116.272892 4.000634 -17.240377 -6.583448 15.669818 3.359140 -0.637073 53.274747 8.051218 -2.198815 -141.402177 44.966714 -121.585945 1.965441 13.354559 -23.333166 
-34.273876 119.689285 89.525612 -123.600165 2.534662 88.243499 11.474899 7.808731 1.179513 -3.517065 5.531910 21.572664 1.994571 13.766814 -29.499424 nan nan nan -15.398647 -8.866504 -28.190422 1.886509 -12.456515 25.485239 4.691826 -4.756962 -13.564275 nan nan nan -4.386523 -3.706601 6.996899 5.134972 -6.999543 9.093328 0.037795 -2.622065 -1.445921 3.364459 -10.169123 11.393594 9.014353 -11.914069 8.809404 -14.871774 -14.126436 4.432241 -65.764561 -46.483067 28.663426 147.510496 -59.405510 -116.886596 3.709490 -16.989845 -7.841278 15.697248 2.947220 -1.114122 53.156402 8.098746 -2.201700 -142.243002 45.175988 -122.957834 2.577960 13.093424 -23.583696 
-34.343788 119.820107 89.509613 -123.721576 2.526575 88.417321 11.468132 7.726668 1.235354 -3.470844 5.713388 21.329619 2.060064 13.807294 -29.408695 nan nan nan -15.212701 -8.850211 -27.995082 2.188594 -12.334710 24.301142 4.837036 -4.457632 -11.903363 nan nan nan -4.505823 -3.618594 6.712159 5.228691 -7.009304 9.048208 0.055460 -2.588551 -1.318898 3.477060 -10.165678 11.289882 9.155744 -11.918692 8.771997 -14.726323 -14.244230 4.405756 -66.106729 -46.517051 28.964133 147.275868 -59.405687 -116.964085 3.631284 -16.907392 -8.456704 15.574037 2.910385 -1.227756 53.154271 8.189530 -2.233880 -142.550319 45.212254 -123.368165 2.742745 12.902962 -23.423581 
-34.407337 119.971809 89.490730 -123.841759 2.510048 88.515512 11.515454 7.645646 1.316498 -3.494545 5.870387 21.243435 2.088491 13.839920 -29.365532 nan nan nan -15.035394 -8.841641 -27.747299 2.512332 -12.141225 23.311333 4.884266 -4.138189 -10.396694 nan nan nan -4.646529 -3.513703 6.490900 5.318547 -7.022384 9.044531 0.059553 -2.567215 -1.273761 3.569062 -10.072398 11.267215 9.210383 -11.848362 8.846929 -14.570892 -14.316119 4.436141 -66.317673 -46.581604 29.206408 147.104061 -59.547978 -117.036437 4.005289 -16.857637 -9.089005 15.498920 2.887219 -1.260668 53.155022 8.405468 -2.213442 -142.811434 45.298369 -123.761981 2.378969 12.732929 -23.453808 
-34.493965 120.137108 89.472473 -123.889390 2.568770 88.603783 11.701350 7.652669 1.343732 -3.622843 5.795436 21.333533 1.977560 13.867831 -29.315659 nan nan nan -14.752442 -8.820148 -27.431001 2.688925 -11.860521 22.427703 4.592302 -4.139256 -9.165217 nan nan nan -4.977982 -3.000155 6.483707 5.676413 -6.659716 8.573080 0.409758 -2.808733 -0.950618 3.662700 -10.653201 11.068517 9.295570 -11.925348 8.883665 -14.610944 -14.643047 4.468431 -67.173049 -46.628216 30.073587 146.953840 -60.046815 -117.514565 4.849896 -16.751871 -10.654607 15.260290 2.444232 -1.909276 52.856274 8.036442 -2.416309 -143.427482 45.477457 -125.099660 1.862667 12.621929 -24.174349 
-34.623268 120.363205 89.396614 -124.108318 2.450783 88.393109 11.776800 7.833330 1.877517 -3.606149 5.919636 21.277253 1.620848 13.438568 -29.194791 nan nan nan -14.532419 -8.544891 -26.642486 2.303300 -11.304676 21.186540 3.945965 -3.813716 -9.385164 nan nan nan -5.328713 -2.758427 6.600573 5.741776 -6.436926 8.484707 0.574719 -2.847113 -0.593020 3.940660 -10.553430 10.967728 9.498442 -12.354560 8.141116 -13.970548 -14.303049 3.972205 -68.810787 -46.545744 31.256920 146.878951 -60.498820 -118.214489 5.262433 -17.233363 -11.083400 15.002293 2.148541 -2.218781 53.122844 8.322457 -2.587482 -143.903355 45.652467 -127.127549 2.419484 13.397800 -23.182545 
-34.795475 120.676392 89.453506 -124.360019 2.277201 88.338182 11.642672 8.089313 2.284083 -3.244155 6.395553 21.121116 0.914948 12.590854 -29.204442 nan nan nan -14.314967 -8.843391 -26.585926 1.653119 -11.811680 21.473937 3.252994 -3.095326 -9.775125 nan nan nan -5.666760 -2.523506 6.751059 5.599766 -6.160881 8.281651 1.377877 -3.659106 -0.648100 4.064392 -9.059092 12.785900 9.321859 -13.937151 5.267804 -13.994941 -13.728577 2.263210 -70.905769 -44.145980 31.109780 146.048043 -62.065965 -115.420152 4.055954 -21.936804 -7.033779 14.557083 3.284138 -2.573713 53.614129 7.314651 -2.938597 -143.944439 45.549222 -127.882626 4.589052 15.709252 -20.440102 
